<svg t="1577963700758" class="icon" viewBox="0 0 1024 1024" version="1.1" xmlns="http://www.w3.org/2000/svg" p-id="6039" width="200" height="200"><path d="M664.099 61.554H215.916c-44.183 0-80 35.817-80 80v741.089c0 44.183 35.817 80 80 80h593.4c44.183 0 80-35.817 80-80V282.631L664.099 61.554z m195.217 821.088c0 27.57-22.43 50-50 50h-593.4c-27.57 0-50-22.43-50-50V141.554c0-27.57 22.43-50 50-50h435.92l207.48 203.667v587.421z" fill="#1296db" p-id="6040"></path><path d="M286.211 255.647h65.849v65.849c0 8.284 6.716 15 15 15s15-6.716 15-15v-65.849h65.849c8.284 0 15-6.716 15-15s-6.716-15-15-15H382.06v-65.85c0-8.284-6.716-15-15-15s-15 6.716-15 15v65.85h-65.849c-8.284 0-15 6.716-15 15s6.716 15 15 15zM271.767 512.224c0 8.285 6.716 15 15 15h451.698c8.284 0 15-6.716 15-15 0-8.284-6.716-15-15-15H286.767c-8.284 0-15 6.716-15 15zM738.465 646.428H286.767c-8.284 0-15 6.716-15 15s6.716 15 15 15h451.698c8.284 0 15-6.716 15-15s-6.716-15-15-15zM738.465 795.631H286.767c-8.284 0-15 6.716-15 15s6.716 15 15 15h451.698c8.284 0 15-6.716 15-15s-6.716-15-15-15z" fill="#1296db" p-id="6041"></path></svg>