<svg t="1577964568005" class="icon" viewBox="0 0 1024 1024" version="1.1" xmlns="http://www.w3.org/2000/svg" p-id="14795" width="200" height="200"><path d="M288.768 552.96h445.781333v371.370667H288.768z" p-id="14796" fill="#1296db"></path><path d="M748.885333 99.669333h-19.114666v218.453334c0 34.816-28.672 63.488-63.488 63.488H357.717333c-34.816 0-63.488-28.672-63.488-63.488v-218.453334H143.36c-24.576 0-44.373333 19.797333-44.373333 44.373334V880.64c0 24.576 19.797333 44.373333 44.373333 44.373333h77.141333V548.181333c0-34.816 28.672-63.488 63.488-63.488h455.338667c34.816 0 63.488 28.672 63.488 63.488v376.149334H880.64c24.576 0 44.373333-19.797333 44.373333-44.373334V275.114667l-176.128-175.445334z" p-id="14797" fill="#1296db"></path><path d="M362.496 99.669333h192.512v213.674667H362.496zM623.274667 99.669333h38.229333v213.674667h-38.229333z" p-id="14798" fill="#1296db"></path></svg>