<svg t="1579017369298" class="icon" viewBox="0 0 1024 1024" version="1.1" xmlns="http://www.w3.org/2000/svg" p-id="21198" width="200" height="200"><path d="M160 672c64 150.4 211.2 256 384 256 230.4 0 416-185.6 416-416S774.4 96 544 96C348.8 96 182.4 233.6 137.6 416h32c41.6-166.4 192-288 371.2-288 211.2 0 384 172.8 384 384s-172.8 384-384 384c-153.6 0-288-92.8-348.8-224H160z" fill="#222222" p-id="21199"></path><path d="M156.8 566.4c-57.6 0-92.8-6.4-92.8-6.4l6.4-32c3.2 0 316.8 57.6 595.2-188.8l22.4 22.4c-201.6 176-412.8 204.8-531.2 204.8zM336 768c-25.6 0-48-22.4-48-48v-64c0-25.6 22.4-48 48-48s48 22.4 48 48v64c0 25.6-22.4 48-48 48z m0-128c-9.6 0-16 6.4-16 16v64c0 9.6 6.4 16 16 16s16-6.4 16-16v-64c0-9.6-6.4-16-16-16zM464 768c-25.6 0-48-22.4-48-48v-96c0-25.6 22.4-48 48-48s48 22.4 48 48v96c0 25.6-22.4 48-48 48z m0-160c-9.6 0-16 6.4-16 16v96c0 9.6 6.4 16 16 16s16-6.4 16-16v-96c0-9.6-6.4-16-16-16zM592 768c-25.6 0-48-22.4-48-48v-160c0-25.6 22.4-48 48-48s48 22.4 48 48v160c0 25.6-22.4 48-48 48z m0-224c-9.6 0-16 6.4-16 16v160c0 9.6 6.4 16 16 16s16-6.4 16-16v-160c0-9.6-6.4-16-16-16zM720 768c-25.6 0-48-22.4-48-48v-224c0-25.6 22.4-48 48-48s48 22.4 48 48v224c0 25.6-22.4 48-48 48z m0-288c-9.6 0-16 6.4-16 16v224c0 9.6 6.4 16 16 16s16-6.4 16-16v-224c0-9.6-6.4-16-16-16z" fill="#222222" p-id="21200"></path><path d="M723.2 425.6L576 294.4l204.8-80-57.6 211.2z m-86.4-121.6l70.4 64 28.8-102.4-99.2 38.4z" fill="#7982F2" p-id="21201"></path></svg>