<svg t="1579018088158" class="icon" viewBox="0 0 1024 1024" version="1.1" xmlns="http://www.w3.org/2000/svg" p-id="21360" width="64" height="64"><path d="M603.9 475l0.6-0.4 50.5-27.7 0.6-0.2c3.5-1.2 6.8-1.9 10.4-1.9 7.7 0 15.1 3.1 20.1 8.3 4.3 4.1 16.1 14.7 27.9 19.4V207c0-9.9-5.8-18.1-12.9-18.1h-87.7c-7.1 0-12.9 8.1-12.9 18.1v270.9c1.1-1.1 2.2-2.1 3.4-2.9zM683.6 808.9c-4.8 5.6-12.4 8.7-20.1 8.7-3.7 0-7.2-0.6-10.4-2.1l-0.6-0.2-48-27.1-0.4-0.4c-1.3-0.9-2.5-2-3.6-3.1V800c0 9.9 5.8 18.1 12.9 18.1h87.7c7.1 0 12.9-8.1 12.9-18.1v-12.2c-12 4.1-24.9 15.1-30.4 21.1zM402.4 188.9h-87.7c-7.1 0-12.9 8.1-12.9 18.1v593c0 9.9 5.8 18.1 12.9 18.1h87.7c7.1 0 12.9-8.1 12.9-18.1V207c0-9.9-5.8-18.1-12.9-18.1zM549.3 690.1c-9.1 0-16.4-7.9-18.8-20.1 0-1-4.1-22.2-4.1-38.7 0-16.6 3.9-37.7 4.1-38.7 2.1-12.2 9.5-20.1 18.8-20.1h1.9c4.7 0 9.2-0.7 13.5-1.9v-137c0-7.9-4.6-14.4-10.2-14.4h-93c-5.6 0-10.2 6.5-10.2 14.4v370.1c0 7.9 4.6 14.4 10.2 14.4h93c5.6 0 10.2-6.5 10.2-14.4V691.9c-4.2-1.2-8.7-1.9-13.3-1.9h-2.1zM257.7 563.9h-97.1c-4.5 0-8.2 5.2-8.2 11.5v231.2c0 6.3 3.7 11.5 8.2 11.5h97.1c4.5 0 8.2-5.2 8.2-11.5V575.4c0-6.3-3.7-11.5-8.2-11.5z" fill="#294F79" p-id="21361"></path><path d="M902.6 595.8c-1.2-6-3.7-8.1-4.1-8.1h-1.9c-35 0-63.4-28.5-63.4-63.4 0-11.6 5.1-23.2 5.6-24.5 1.9-4.2 0.4-9.5-3.4-12.4l-47.3-26.1h-0.1l-0.8-0.4c-0.9-0.4-2.4-0.7-4.2-0.7-3.5 0-7.2 1.4-9.5 3.7l0.2-0.2c-2.6 2.7-26.1 26.1-49.1 26.1-19.8 0-40.8-18.1-48.9-25.9l-0.2-0.2-0.2-0.2c-2.2-2.3-5.7-3.7-9.3-3.7-1.6 0-3.1 0.3-4.9 0.9l-48.8 26.8c-3.6 2.6-5.2 8.2-3.4 12.1 0.6 1.3 5.7 13 5.7 24.5 0 35-28.5 63.4-63.4 63.4h-1.9c-1 0-3.2 2.5-4 7.6l-0.1 0.4c0 0.2-3.9 20.4-3.9 35.8 0 12 2.6 27.6 3.5 33.5 0.2 1.2 0.3 2.1 0.4 2.8 1.2 5.5 3.6 7.5 4 7.5h2.1c35 0 63.4 28.5 63.4 63.4 0 5.1-0.9 10.8-2.7 16.8-0.7 2.4-1.4 4.3-1.9 5.5-0.3 0.8-0.6 1.5-1 2.2-1.9 4.3-0.3 9.7 3.7 12.5l0.6 0.4 45.3 25.6h0.1l0.8 0.4c0.6 0.3 1.9 0.7 4 0.7 3.4 0 6.9-1.4 8.7-3.4l0.2-0.2 0.2-0.2c0.3-0.3 25.6-27.6 50-27.6 9.5 0 20.2 4 31.8 12 8 5.5 14.9 11.8 18.7 16l0.2 0.3c2 2.3 5.4 3.7 9.1 3.7 1.7 0 3-0.3 4.6-0.9l0.2-0.1 48.2-26.6c3.6-2.6 5.2-8.2 3.4-12.1-0.6-1.3-5.7-13-5.7-24.5 0-35 28.5-63.4 63.4-63.4h1.9c1 0 3.2-2.3 4.3-7.7 0-0.2 0.1-0.4 0.1-0.7 2.4-13.8 3.8-26.3 3.8-35.3-0.2-13.8-3.3-32.1-4.1-36.1zM724 689.4c-32 0-58-26-58-58s26-58 58-58 58 26 58 58-26 58-58 58z" fill="#294F79" p-id="21362"></path></svg>