<svg t="1579007295248" class="icon" viewBox="0 0 1024 1024" version="1.1" xmlns="http://www.w3.org/2000/svg" p-id="14792" width="200" height="200"><path d="M138.331346 97.67531c-130.398916 130.302999-130.478846 342.407058-0.175848 472.789988L510.296771 942.862348c108.050297 108.130227 283.945757 108.194172 392.075984 0.127889s108.194172-283.945757 0.143875-392.075984L552.036573 200.130459c-85.813581-85.893512-225.500442-85.94147-311.377967-0.111903s-85.925484 225.500442-0.111903 311.377967l264.410698 264.586546 59.052788-59.00483L299.535547 452.40768A136.681467 136.681467 0 1 1 492.887868 259.135289l350.559988 350.79978a193.751975 193.751975 0 0 1-274.098297 273.906463L197.224273 511.444482c-97.771211-97.819169-97.707266-256.945172 0.111903-354.700397s256.961158-97.707266 354.700397 0.111903l297.054389 297.246222 59.052788-59.020816L611.185278 97.851158c-130.382929-130.398916-342.471003-130.478846-472.853932-0.175848z" fill="#707070" p-id="14793"></path><path d="M504.883865 775.992661l59.060781-59.019218 59.426864 59.468428-59.060781 59.019217zM838.049337 443.065381l59.060782-59.020816 59.426864 59.468428-59.060782 59.020816z" fill="#707070" p-id="14794"></path></svg>